<svg width="336" height="252" viewBox="0 0 336 252" fill="none" xmlns="http://www.w3.org/2000/svg">
<path fill-rule="evenodd" clip-rule="evenodd" d="M101.584 208C93.8685 215.253 94.0194 225.196 98.7331 230.21C103.447 235.225 113.362 235.989 121.077 228.736C128.793 221.483 128.642 211.54 123.928 206.526C119.215 201.511 109.3 200.747 101.584 208ZM86.3467 241.854C73.864 228.575 76.9003 207.872 89.9404 195.613C102.981 183.355 123.832 181.603 136.315 194.882C148.798 208.161 145.761 228.864 132.721 241.122C119.681 253.381 98.8295 255.133 86.3467 241.854Z" fill="#53AF32"/>
<path fill-rule="evenodd" clip-rule="evenodd" d="M242.294 207.997C234.579 215.25 234.729 225.193 239.443 230.207C244.157 235.222 254.072 235.986 261.787 228.733C269.503 221.48 269.352 211.537 264.638 206.522C259.925 201.508 250.01 200.744 242.294 207.997ZM227.057 241.851C214.574 228.572 217.61 207.869 230.65 195.61C243.691 183.352 264.542 181.6 277.025 194.879C289.508 208.157 286.471 228.861 273.431 241.119C260.391 253.378 239.539 255.13 227.057 241.851Z" fill="#53AF32"/>
<path fill-rule="evenodd" clip-rule="evenodd" d="M219.505 22.9573C226.844 16.0929 236.109 16.8766 240.506 21.5393C244.878 26.175 245.088 35.4848 237.779 42.3534C234.358 45.5683 234.191 50.9476 237.406 54.3685C240.621 57.7894 246 57.9564 249.421 54.7416C262.032 42.8902 265.062 22.8 252.874 9.87578C240.712 -3.02019 220.541 -1.29744 207.881 10.5518L207.875 10.5576L207.869 10.5635C196.626 21.1296 193.123 37.9061 200.841 50.7065C203.265 54.7267 208.489 56.0207 212.509 53.5968C216.529 51.1728 217.823 45.9488 215.399 41.9286C212.458 37.0505 213.154 28.9307 219.505 22.9573Z" fill="#53AF32"/>
<path fill-rule="evenodd" clip-rule="evenodd" d="M121.76 165.748C121.76 161.053 125.566 157.248 130.26 157.248H327C331.694 157.248 335.5 161.053 335.5 165.748C335.5 170.442 331.694 174.248 327 174.248H130.26C125.566 174.248 121.76 170.442 121.76 165.748Z" fill="#53AF32"/>
<path fill-rule="evenodd" clip-rule="evenodd" d="M0 75.4075C0 70.7131 3.80558 66.9075 8.5 66.9075H86.92C91.6144 66.9075 95.42 70.7131 95.42 75.4075C95.42 80.1019 91.6144 83.9075 86.92 83.9075H8.5C3.80558 83.9075 0 80.1019 0 75.4075Z" fill="#53AF32"/>
<path fill-rule="evenodd" clip-rule="evenodd" d="M26.14 109.428C26.14 104.733 29.9456 100.928 34.64 100.928H77.29C81.9844 100.928 85.79 104.733 85.79 109.428C85.79 114.122 81.9844 117.928 77.29 117.928H34.64C29.9456 117.928 26.14 114.122 26.14 109.428Z" fill="#53AF32"/>
<path fill-rule="evenodd" clip-rule="evenodd" d="M192.36 78.2175C189.647 70.162 189.645 70.1627 189.643 70.1634L189.628 70.1685L189.601 70.1777L189.523 70.2044C189.461 70.2259 189.379 70.2547 189.276 70.2908C189.072 70.3632 188.79 70.4651 188.437 70.597C187.732 70.8605 186.743 71.2446 185.532 71.752C183.117 72.764 179.788 74.2803 176.058 76.326C168.727 80.3462 159.246 86.7363 152.355 95.8673C149.527 99.6144 150.273 104.944 154.02 107.772C157.767 110.6 163.097 109.855 165.925 106.108C170.754 99.7088 177.883 94.7138 184.232 91.2316C187.342 89.526 190.12 88.2617 192.103 87.4309C193.091 87.0168 193.873 86.714 194.389 86.5209C194.647 86.4245 194.838 86.3557 194.955 86.3144C195.013 86.2938 195.053 86.28 195.073 86.2731L195.076 86.2719L195.077 86.2714C195.081 86.2704 195.084 86.2693 195.087 86.2683C199.527 84.7647 201.912 79.9491 200.416 75.5049C198.917 71.0559 194.096 68.6638 189.647 70.162L192.36 78.2175Z" fill="#53AF32"/>
<path fill-rule="evenodd" clip-rule="evenodd" d="M120.119 115.004C103.061 134.551 91.3754 152.868 88.1084 160.863L88.1067 160.867C86.4544 164.904 83.2994 167.322 80.4417 168.639C77.6196 169.939 74.6113 170.418 72 170.418H43.67C38.9756 170.418 35.17 166.612 35.17 161.918C35.17 157.223 38.9756 153.418 43.67 153.418H72C72.2888 153.418 72.5776 153.39 72.8343 153.341C77.5675 142.539 90.3796 123.227 107.31 103.826C124.931 83.6344 147.943 62.2632 172.666 49.6386C197.481 36.9672 225.518 32.4763 251.046 49.1761C275.872 65.4167 295.971 100.321 309.296 160.067C310.318 164.649 307.432 169.192 302.85 170.214C298.268 171.236 293.726 168.35 292.704 163.768C279.664 105.3 260.881 75.9246 241.739 63.4024C223.3 51.3394 202.286 53.6016 180.397 64.7789C158.416 76.0031 137.072 95.5763 120.119 115.004Z" fill="#53AF32"/>
</svg>
